<?xml version="1.0"?>
<svg version="1.1" xmlns="http://www.w3.org/2000/svg" width="51" height="36" style=""><path fill="#0a0a0a" d="M16.04248046875,19.4697265625q0-0.2392578125,0.213623046875-0.589599609375t0.478515625-0.7177734375t0.546875-0.7177734375t0.452880859375-0.572509765625q1.1279296875-1.6064453125,1.837158203125-2.708740234375t1.204833984375-1.905517578125t0.845947265625-1.38427734375t0.692138671875-1.09375q1.07666015625,0,1.871337890625,0.11962890625t0.794677734375,0.35888671875l0.478515625,1.76025390625q0.3076171875,1.04248046875,0.59814453125,1.77734375t0.657958984375,1.41845703125t0.8544921875,1.50390625t1.187744140625,2.0849609375q0.1025390625,0.205078125-0.05126953125,0.452880859375t-0.418701171875,0.4443359375t-0.56396484375,0.299072265625t-0.435791015625,0.0341796875q-0.49560546875-0.2392578125-1.085205078125-1.187744140625t-1.187744140625-2.0849609375t-1.1279296875-2.20458984375t-0.90576171875-1.563720703125q-0.70068359375,1.07666015625-1.5380859375,2.13623046875t-1.572265625,2.06787109375q-0.2734375,0.39306640625-0.5810546875,0.863037109375t-0.6494140625,0.888671875t-0.709228515625,0.70068359375t-0.794677734375,0.281982421875l-0.15380859375-0.01708984375q-0.1708984375-0.01708984375-0.3759765625-0.059814453125t-0.384521484375-0.128173828125t-0.179443359375-0.25634765625z"/><path fill="#c7325c" d=""/></svg>
